<svg width="24" height="30" viewBox="0 0 24 30" fill="none" xmlns="http://www.w3.org/2000/svg">
<path d="M4.76288 0C5.99999 3.33878e-05 6.96907 0.515497 7.67011 1.54639C8.41237 2.53611 8.82474 3.89694 8.90722 5.62887V12.1237H10.6392L13.5464 15.0928H8.90722V23.5052C8.90721 24.165 9.15463 24.7629 9.64948 25.299C10.1443 25.8351 10.9484 26.1031 12.0619 26.1031C13.5051 26.1031 15.0309 25.299 16.6392 23.6907C18.2886 22.0413 19.1546 20.3505 19.2371 18.6186L18.4948 18.6804C15.8557 18.6804 14.5361 17.2784 14.5361 14.4742C14.5361 13.5258 14.8453 12.6804 15.4639 11.9381C16.0825 11.1959 17.1134 10.8248 18.5567 10.8247C20.0825 10.8248 21.3608 11.4846 22.3918 12.8041C23.4639 14.1237 24 15.732 24 17.6289C24 20.433 22.8041 23.1134 20.4124 25.6701C18.0618 28.2268 15.2577 29.5052 12 29.5052C10.8041 29.5052 9.52576 28.9897 8.16495 27.9588C6.84535 26.8866 6.06185 25.8557 5.81443 24.866V15.0928H2.84536L0 12.1237H5.81443V6.24742C5.81443 5.05158 5.09278 4.35055 3.64948 4.14433C2.98969 4.14436 2.5567 4.24746 2.35052 4.45361C1.97938 3.83508 1.62887 3.09282 1.29897 2.22681V1.91753C1.29897 1.38148 1.71134 0.927871 2.53608 0.556704C3.36082 0.185604 4.10309 3.33878e-05 4.76288 0Z" fill="black"/>
</svg>
